<svg width="42" height="42" viewBox="0 0 42 42" fill="none" xmlns="http://www.w3.org/2000/svg">
<path d="M17.1083 34.6667C18.1439 34.6667 18.9833 33.8272 18.9833 32.7917C18.9833 31.7561 18.1439 30.9167 17.1083 30.9167C16.0728 30.9167 15.2333 31.7561 15.2333 32.7917C15.2333 33.8272 16.0728 34.6667 17.1083 34.6667Z" fill="white"/>
<path d="M28.5 34.6667C29.5355 34.6667 30.375 33.8272 30.375 32.7917C30.375 31.7561 29.5355 30.9167 28.5 30.9167C27.4645 30.9167 26.625 31.7561 26.625 32.7917C26.625 33.8272 27.4645 34.6667 28.5 34.6667Z" fill="white"/>
<path d="M33.5666 12.475C33.4891 12.3794 33.3913 12.3022 33.2804 12.2488C33.1694 12.1955 33.0481 12.1675 32.925 12.1666H15.575L16.1166 13.8333H31.8333L29.6083 23.8333H17.1083L13.3 11.775C13.2588 11.647 13.1872 11.5309 13.0915 11.4366C12.9957 11.3423 12.8785 11.2725 12.75 11.2333L9.3333 10.1833C9.22825 10.151 9.11786 10.1398 9.00844 10.1501C8.89903 10.1605 8.79273 10.1923 8.69561 10.2438C8.49948 10.3477 8.35267 10.5253 8.28747 10.7375C8.22227 10.9497 8.24403 11.179 8.34795 11.3752C8.45188 11.5713 8.62946 11.7181 8.84164 11.7833L11.8333 12.7L15.6583 24.7833L14.2916 25.9L14.1833 26.0083C13.8453 26.3979 13.6536 26.8932 13.6415 27.4088C13.6293 27.9245 13.7973 28.4282 14.1166 28.8333C14.3438 29.1095 14.6324 29.3288 14.9594 29.4735C15.2864 29.6182 15.6428 29.6843 16 29.6666H29.9083C30.1293 29.6666 30.3413 29.5788 30.4976 29.4226C30.6538 29.2663 30.7416 29.0543 30.7416 28.8333C30.7416 28.6123 30.6538 28.4003 30.4976 28.2441C30.3413 28.0878 30.1293 28 29.9083 28H15.8666C15.7707 27.9967 15.6772 27.9687 15.5952 27.9188C15.5132 27.8688 15.4455 27.7985 15.3985 27.7148C15.3516 27.631 15.3271 27.5365 15.3274 27.4405C15.3276 27.3445 15.3526 27.2502 15.4 27.1666L17.4083 25.5H30.275C30.4676 25.5047 30.6559 25.4425 30.8079 25.324C30.9598 25.2055 31.066 25.038 31.1083 24.85L33.75 13.1833C33.7753 13.0591 33.772 12.9307 33.7402 12.8079C33.7084 12.6852 33.6491 12.5713 33.5666 12.475Z" fill="white"/>
<circle cx="21" cy="21" r="19.5" stroke="white" stroke-width="3"/>
</svg>
