<svg width="43" height="43" viewBox="0 0 43 43" fill="none" xmlns="http://www.w3.org/2000/svg">
<path d="M21.5 28.1048L22.1937 26.8521C21.9814 26.7346 21.7427 26.673 21.5 26.673C21.2573 26.673 21.0186 26.7346 20.8063 26.8521L21.5 28.1048ZM15.2994 31.5333L13.8833 31.304C13.8398 31.5697 13.872 31.8423 13.9763 32.0906C14.0805 32.3389 14.2526 32.5527 14.4728 32.7077C14.693 32.8627 14.9524 32.9525 15.2213 32.9669C15.4902 32.9812 15.7577 32.9196 15.9931 32.7889L15.2994 31.5333ZM16.4833 24.2721L17.8966 24.5014C17.9326 24.2804 17.9164 24.0541 17.8492 23.8405C17.782 23.627 17.6657 23.4321 17.5096 23.2716L16.4833 24.2749V24.2721ZM11.4667 19.1321L11.2517 17.7131C10.9907 17.7524 10.7457 17.863 10.5436 18.0327C10.3415 18.2024 10.1901 18.4246 10.1062 18.6748C10.0223 18.925 10.0091 19.1935 10.0681 19.4507C10.1271 19.708 10.2559 19.9439 10.4404 20.1326L11.4667 19.1293V19.1321ZM18.3983 18.0715L18.6161 19.4905C18.8488 19.4548 19.0691 19.3624 19.2576 19.2214C19.4461 19.0804 19.597 18.8952 19.6969 18.6821L18.3983 18.0715ZM21.5 11.4667L22.7986 10.8589C22.6832 10.6119 22.4997 10.4029 22.2697 10.2565C22.0397 10.1101 21.7727 10.0323 21.5 10.0323C21.2273 10.0323 20.9603 10.1101 20.7303 10.2565C20.5003 10.4029 20.3168 10.6119 20.2014 10.8589L21.5 11.4667ZM24.6017 18.0715L23.3031 18.6821C23.403 18.8952 23.5539 19.0804 23.7424 19.2214C23.9309 19.3624 24.1512 19.4548 24.3839 19.4905L24.6017 18.0715ZM31.5333 19.1321L32.5596 20.1326C32.7441 19.9439 32.8729 19.708 32.9319 19.4507C32.9909 19.1935 32.9777 18.925 32.8938 18.6748C32.8099 18.4246 32.6585 18.2024 32.4564 18.0327C32.2543 17.863 32.0093 17.7524 31.7483 17.7131L31.5333 19.1321ZM26.5167 24.2721L25.4904 23.2716C25.3339 23.4324 25.2174 23.6278 25.1501 23.8419C25.0829 24.056 25.0669 24.2828 25.1034 24.5043L26.5167 24.2749V24.2721ZM27.7006 31.5333L27.0069 32.7889C27.2425 32.9198 27.5104 32.9816 27.7796 32.9671C28.0488 32.9527 28.3084 32.8626 28.5288 32.7072C28.7491 32.5519 28.9211 32.3375 29.0251 32.0888C29.1291 31.8401 29.1609 31.5671 29.1167 31.3011L27.7006 31.5333ZM20.8063 26.8521L14.6057 30.2777L15.9931 32.7889L22.1937 29.3604L20.8063 26.8521ZM16.7127 31.7627L17.8966 24.5043L15.0701 24.0427L13.8833 31.3011L16.7127 31.7655V31.7627ZM17.5096 23.2716L12.4929 18.1288L10.4404 20.1326L15.4571 25.2725L17.5096 23.2716ZM11.6817 20.5483L18.6161 19.4876L18.1833 16.6553L11.2517 17.716L11.6817 20.5483ZM19.6969 18.6821L22.7986 12.0744L20.2014 10.8589L17.1025 17.4637L19.6969 18.6821ZM20.2014 12.0744L23.306 18.6821L25.9003 17.4637L22.8015 10.8589L20.2043 12.0744H20.2014ZM24.3867 19.4933L31.3183 20.5511L31.7483 17.716L24.8167 16.6582L24.3867 19.4933ZM30.5071 18.1317L25.4904 23.2745L27.5429 25.2754L32.5596 20.1355L30.5071 18.1317ZM25.1034 24.5043L26.2873 31.7655L29.1167 31.3011L27.9299 24.0427L25.1034 24.5014V24.5043ZM28.3943 30.2777L22.1937 26.8521L20.8063 29.3604L27.0069 32.7889L28.3943 30.2777ZM21.5 40.1333C16.5581 40.1333 11.8187 38.1702 8.32424 34.6758C4.82982 31.1813 2.86667 26.4419 2.86667 21.5H0C0 27.2022 2.26517 32.6708 6.2972 36.7028C10.3292 40.7348 15.7978 43 21.5 43V40.1333ZM40.1333 21.5C40.1333 23.947 39.6514 26.37 38.715 28.6307C37.7785 30.8914 36.406 32.9455 34.6758 34.6758C32.9455 36.406 30.8914 37.7785 28.6307 38.715C26.37 39.6514 23.947 40.1333 21.5 40.1333V43C27.2022 43 32.6708 40.7348 36.7028 36.7028C40.7348 32.6708 43 27.2022 43 21.5H40.1333ZM21.5 2.86667C23.947 2.86667 26.37 3.34863 28.6307 4.28504C30.8914 5.22146 32.9455 6.59398 34.6758 8.32424C36.406 10.0545 37.7785 12.1086 38.715 14.3693C39.6514 16.63 40.1333 19.053 40.1333 21.5H43C43 15.7978 40.7348 10.3292 36.7028 6.2972C32.6708 2.26517 27.2022 0 21.5 0V2.86667ZM21.5 0C15.7978 0 10.3292 2.26517 6.2972 6.2972C2.26517 10.3292 0 15.7978 0 21.5H2.86667C2.86667 16.5581 4.82982 11.8187 8.32424 8.32424C11.8187 4.82982 16.5581 2.86667 21.5 2.86667V0Z" fill="white"/>
</svg>
