<svg width="39" height="39" viewBox="0 0 39 39" fill="none" xmlns="http://www.w3.org/2000/svg">
<path fill-rule="evenodd" clip-rule="evenodd" d="M11.7527 0.821002C13.7566 0.728752 14.3955 0.708252 19.5 0.708252C24.6045 0.708252 25.2434 0.73046 27.2456 0.821002C29.2477 0.911544 30.6144 1.231 31.8102 1.69396C33.0624 2.16717 34.1985 2.90688 35.1381 3.86354C36.0947 4.80142 36.8327 5.93575 37.3042 7.18967C37.7689 8.3855 38.0866 9.75217 38.1789 11.7509C38.2711 13.7582 38.2916 14.3971 38.2916 19.4999C38.2916 24.6044 38.2694 25.2433 38.1789 27.2472C38.0884 29.246 37.7689 30.6126 37.3042 31.8085C36.8327 33.0625 36.0935 34.1988 35.1381 35.138C34.1985 36.0947 33.0624 36.8327 31.8102 37.3042C30.6144 37.7688 29.2477 38.0866 27.249 38.1788C25.2434 38.2711 24.6045 38.2916 19.5 38.2916C14.3955 38.2916 13.7566 38.2694 11.7527 38.1788C9.75394 38.0883 8.38727 37.7688 7.19144 37.3042C5.93739 36.8326 4.80117 36.0934 3.8619 35.138C2.90588 34.1996 2.16606 33.0639 1.69402 31.8102C1.23106 30.6143 0.913313 29.2477 0.821063 27.2489C0.728813 25.2416 0.708313 24.6027 0.708313 19.4999C0.708313 14.3954 0.730521 13.7565 0.821063 11.7543C0.911605 9.75217 1.23106 8.3855 1.69402 7.18967C2.16676 5.93589 2.90714 4.80025 3.8636 3.86184C4.80155 2.90602 5.93662 2.16622 7.18973 1.69396C8.38556 1.231 9.75223 0.913252 11.751 0.821002H11.7527ZM27.0935 4.2035C25.1119 4.11296 24.5174 4.09417 19.5 4.09417C14.4826 4.09417 13.8881 4.11296 11.9064 4.2035C10.0734 4.28721 9.07915 4.593 8.41631 4.85096C7.53994 5.19263 6.91298 5.5975 6.25527 6.25521C5.63181 6.86176 5.152 7.60015 4.85102 8.41625C4.59306 9.07909 4.28727 10.0733 4.20356 11.9064C4.11302 13.888 4.09423 14.4825 4.09423 19.4999C4.09423 24.5173 4.11302 25.1118 4.20356 27.0935C4.28727 28.9265 4.59306 29.9208 4.85102 30.5836C5.15169 31.3985 5.63173 32.1382 6.25527 32.7446C6.86173 33.3682 7.60144 33.8482 8.41631 34.1489C9.07915 34.4068 10.0734 34.7126 11.9064 34.7963C13.8881 34.8869 14.4809 34.9057 19.5 34.9057C24.5191 34.9057 25.1119 34.8869 27.0935 34.7963C28.9266 34.7126 29.9208 34.4068 30.5836 34.1489C31.46 33.8072 32.087 33.4023 32.7447 32.7446C33.3682 32.1382 33.8483 31.3985 34.1489 30.5836C34.4069 29.9208 34.7127 28.9265 34.7964 27.0935C34.8869 25.1118 34.9057 24.5173 34.9057 19.4999C34.9057 14.4825 34.8869 13.888 34.7964 11.9064C34.7127 10.0733 34.4069 9.07909 34.1489 8.41625C33.8073 7.53988 33.4024 6.91292 32.7447 6.25521C32.1381 5.63179 31.3997 5.15199 30.5836 4.85096C29.9208 4.593 28.9266 4.28721 27.0935 4.2035ZM17.0998 25.2929C18.4402 25.8509 19.9328 25.9262 21.3226 25.5059C22.7125 25.0857 23.9133 24.196 24.72 22.9887C25.5267 21.7815 25.8892 20.3317 25.7457 18.8868C25.6022 17.442 24.9615 16.0917 23.9331 15.0668C23.2775 14.4116 22.4848 13.9099 21.612 13.5979C20.7393 13.2858 19.8082 13.1712 18.8858 13.2621C17.9634 13.3531 17.0727 13.6475 16.2777 14.124C15.4828 14.6006 14.8033 15.2474 14.2884 16.0181C13.7734 16.7887 13.4357 17.664 13.2996 18.5808C13.1635 19.4976 13.2324 20.4332 13.5012 21.3202C13.7701 22.2072 14.2323 23.0235 14.8545 23.7105C15.4768 24.3974 16.2436 24.9379 17.0998 25.2929ZM12.6701 12.67C13.567 11.7731 14.6318 11.0616 15.8037 10.5762C16.9755 10.0908 18.2315 9.84096 19.5 9.84096C20.7684 9.84096 22.0244 10.0908 23.1963 10.5762C24.3682 11.0616 25.433 11.7731 26.3299 12.67C27.2268 13.5669 27.9383 14.6317 28.4237 15.8036C28.9091 16.9755 29.1589 18.2315 29.1589 19.4999C29.1589 20.7684 28.9091 22.0244 28.4237 23.1962C27.9383 24.3681 27.2268 25.4329 26.3299 26.3298C24.5185 28.1412 22.0617 29.1589 19.5 29.1589C16.9383 29.1589 14.4815 28.1412 12.6701 26.3298C10.8587 24.5184 9.84102 22.0616 9.84102 19.4999C9.84102 16.9382 10.8587 14.4814 12.6701 12.67ZM31.3011 11.2794C31.5234 11.0698 31.7013 10.8176 31.8244 10.538C31.9475 10.2583 32.0132 9.95677 32.0176 9.65126C32.0221 9.34574 31.9652 9.04244 31.8503 8.7593C31.7355 8.47617 31.565 8.21896 31.3489 8.0029C31.1329 7.78685 30.8756 7.61634 30.5925 7.50147C30.3094 7.3866 30.0061 7.32971 29.7006 7.33416C29.395 7.33862 29.0935 7.40433 28.8139 7.5274C28.5342 7.65047 28.2821 7.82841 28.0724 8.05067C27.6646 8.48293 27.4414 9.05708 27.4501 9.65126C27.4587 10.2454 27.6986 10.8128 28.1188 11.233C28.539 11.6532 29.1064 11.8931 29.7006 11.9018C30.2947 11.9104 30.8689 11.6872 31.3011 11.2794Z" fill="white"/>
</svg>
