<svg width="41" height="41" viewBox="0 0 41 41" fill="none" xmlns="http://www.w3.org/2000/svg">
<path d="M0 20.5C0 29.2518 5.48546 36.724 13.2054 39.6641C13.0175 38.0634 12.8176 35.424 13.2481 33.5722C13.6188 31.98 15.6415 23.4281 15.6415 23.4281C15.6415 23.4281 15.0316 22.2066 15.0316 20.3975C15.0316 17.5617 16.675 15.4433 18.7233 15.4433C20.4658 15.4433 21.3063 16.7502 21.3063 18.3168C21.3063 20.0678 20.1908 22.685 19.6151 25.1125C19.135 27.1437 20.635 28.8008 22.6371 28.8008C26.2639 28.8008 29.0536 24.9758 29.0536 19.4545C29.0536 14.567 25.5413 11.152 20.5273 11.152C14.7224 11.152 11.3143 15.5065 11.3143 20.008C11.3143 21.7625 11.9891 23.6416 12.833 24.6649C12.9049 24.7422 12.9558 24.8367 12.9806 24.9393C13.0055 25.042 13.0034 25.1493 12.9748 25.2509C12.8193 25.8966 12.4742 27.2821 12.4076 27.5657C12.3171 27.9381 12.1121 28.0184 11.7243 27.8373C9.17546 26.6517 7.58329 22.9258 7.58329 19.9328C7.58329 13.4941 12.259 7.58329 21.0655 7.58329C28.1448 7.58329 33.6473 12.628 33.6473 19.3691C33.6473 26.4023 29.2142 32.0637 23.0574 32.0637C20.9886 32.0637 19.0462 30.9875 18.38 29.7182C18.38 29.7182 17.3567 33.6166 17.109 34.5698C16.6272 36.4217 15.2913 38.7655 14.4627 40.0963C16.3727 40.684 18.3988 41 20.5 41C31.8211 41 41 31.8211 41 20.5C41 9.17888 31.8211 0 20.5 0C9.17888 0 0 9.17888 0 20.5Z" fill="white"/>
</svg>
