<svg width="41" height="41" viewBox="0 0 41 41" fill="none" xmlns="http://www.w3.org/2000/svg">
<path d="M20.4359 2.28125C12.1078 2.28125 4.99687 7.6625 2.37031 15.0938H38.6297C35.9391 7.6625 28.8281 2.28125 20.4359 2.28125Z" fill="#F9F9F9"/>
<path d="M20.4359 40.7188C28.8281 40.7188 35.9391 35.3375 38.5656 27.9062H2.37031C4.99687 35.4016 12.1078 40.7188 20.4359 40.7188Z" fill="#ED4C5C"/>
<path d="M2.37031 15.0938C1.66563 17.0797 1.28125 19.2578 1.28125 21.5C1.28125 23.7422 1.66563 25.9203 2.37031 27.9062H38.6297C39.3344 25.9203 39.7188 23.7422 39.7188 21.5C39.7188 19.2578 39.3344 17.0797 38.6297 15.0938H2.37031Z" fill="#428BC1"/>
</svg>
