<svg width="41" height="44" viewBox="0 0 41 44" fill="none" xmlns="http://www.w3.org/2000/svg">
<path d="M20.5 1.81982C9.63091 1.81982 0.820007 10.6307 0.820007 21.4998C0.820007 32.3689 9.63091 41.1798 20.5 41.1798C31.3691 41.1798 40.18 32.3689 40.18 21.4998C40.18 10.6307 31.3691 1.81982 20.5 1.81982ZM28.0686 24.0234C28.0686 24.0234 29.8091 25.7413 30.2375 26.5387C30.2498 26.5551 30.256 26.5715 30.2601 26.5797C30.4343 26.8729 30.4753 27.1004 30.3892 27.2706C30.2457 27.5535 29.7537 27.6929 29.5856 27.7052H26.5106C26.2974 27.7052 25.8505 27.6498 25.3093 27.2767C24.8932 26.9856 24.4832 26.508 24.0834 26.0426C23.4869 25.3497 22.9703 24.7511 22.4496 24.7511C22.3834 24.751 22.3177 24.7614 22.2548 24.7819C21.8612 24.909 21.3569 25.4707 21.3569 26.9672C21.3569 27.4346 20.9879 27.7031 20.7276 27.7031H19.3192C18.8395 27.7031 16.3406 27.535 14.1266 25.2001C11.4165 22.3403 8.97696 16.6044 8.95646 16.5511C8.80271 16.1801 9.12046 15.9812 9.46691 15.9812H12.5727C12.9868 15.9812 13.1221 16.2334 13.2164 16.4568C13.3271 16.7172 13.733 17.7524 14.3992 18.9168C15.4796 20.8151 16.1417 21.5859 16.6727 21.5859C16.7722 21.5848 16.87 21.5594 16.9576 21.5121C17.6505 21.1267 17.5214 18.6565 17.4906 18.144C17.4906 18.0476 17.4886 17.039 17.1339 16.5552C16.8797 16.2047 16.4472 16.0714 16.1848 16.0222C16.291 15.8757 16.4309 15.7568 16.5927 15.6758C17.0683 15.438 17.9252 15.4031 18.776 15.4031H19.2495C20.172 15.4154 20.4098 15.4749 20.744 15.5589C21.4205 15.7209 21.4348 16.1575 21.3754 17.652C21.3569 18.0763 21.3385 18.556 21.3385 19.1218C21.3385 19.2448 21.3323 19.376 21.3323 19.5154C21.3118 20.276 21.2872 21.139 21.8243 21.4937C21.8944 21.5376 21.9753 21.561 22.058 21.5613C22.2446 21.5613 22.8063 21.5613 24.3274 18.9517C24.7965 18.1117 25.2041 17.2389 25.5471 16.34C25.5779 16.2867 25.6681 16.1227 25.7747 16.0591C25.8533 16.019 25.9406 15.9986 26.0289 15.9997H29.6799C30.0776 15.9997 30.3503 16.0591 30.4015 16.2129C30.4917 16.4568 30.3851 17.201 28.7185 19.458L27.9743 20.44C26.4635 22.4203 26.4635 22.5207 28.0686 24.0234Z" fill="white"/>
</svg>
